HIERARCHY
ROOT Hips
{
  OFFSET -33.9132 29.2015 117.021
  CHANNELS 6 Xposition Yposition Zposition Zrotation Xrotation Yrotation
  JOINT LeftUpLeg
  {
    OFFSET 8.64259 1.95398 -2.38835
    CHANNELS 3 Zrotation Xrotation Yrotation
    JOINT LeftLeg
    {
      OFFSET 43.7702 0 0
      CHANNELS 3 Zrotation Xrotation Yrotation
      JOINT LeftFoot
      {
        OFFSET 40.6238 0 0
        CHANNELS 3 Zrotation Xrotation Yrotation
        JOINT LeftToeBase
        {
          OFFSET 12.7242 0 0
          CHANNELS 3 Zrotation Xrotation Yrotation
          End Site
          {
            OFFSET 0 0 0
          }
        }
      }
    }
  }
  JOINT RightUpLeg
  {
    OFFSET -8.2249 1.95398 -2.59336
    CHANNELS 3 Zrotation Xrotation Yrotation
    JOINT RightLeg
    {
      OFFSET 43.5653 0 0
      CHANNELS 3 Zrotation Xrotation Yrotation
      JOINT RightFoot
      {
        OFFSET 40.6238 0 0
        CHANNELS 3 Zrotation Xrotation Yrotation
        JOINT RightToeBase
        {
          OFFSET 12.7242 0 0
          CHANNELS 3 Zrotation Xrotation Yrotation
          End Site
          {
            OFFSET 0 0 0
          }
        }
      }
    }
  }
  JOINT Spine
  {
    OFFSET 0.165834 0.87714 6.61349
    CHANNELS 3 Zrotation Xrotation Yrotation
    JOINT Spine1
    {
      OFFSET 7.38963 1.71661e-005 0
      CHANNELS 3 Zrotation Xrotation Yrotation
      JOINT Spine2
      {
        OFFSET 11.9445 1.14441e-005 0
        CHANNELS 3 Zrotation Xrotation Yrotation
        JOINT Spine3
        {
          OFFSET 14.7254 4.19617e-005 0
          CHANNELS 3 Zrotation Xrotation Yrotation
          JOINT Spine4
          {
            OFFSET 10.9679 0 0
            CHANNELS 3 Zrotation Xrotation Yrotation
            JOINT RightShoulder
            {
              OFFSET 2.46616 -1.6653 3.69651
              CHANNELS 3 Zrotation Xrotation Yrotation
              JOINT RightArm
              {
                OFFSET 13.0012 0 0
                CHANNELS 3 Zrotation Xrotation Yrotation
                JOINT RightForeArm
                {
                  OFFSET 28.7848 1.62311e-005 0
                  CHANNELS 3 Zrotation Xrotation Yrotation
                  JOINT RightHand
                  {
                    OFFSET 26.5688 1.62095e-005 0
                    CHANNELS 3 Zrotation Xrotation Yrotation
                    End Site
                    {
                      OFFSET 0 0 0
                    }
                  }
                }
              }
            }
            JOINT LeftShoulder
            {
              OFFSET 2.38034 -1.29275 -3.7523
              CHANNELS 3 Zrotation Xrotation Yrotation
              JOINT LeftArm
              {
                OFFSET 16.3182 6.07031e-005 0
                CHANNELS 3 Zrotation Xrotation Yrotation
                JOINT LeftForeArm
                {
                  OFFSET 27.0901 0 0
                  CHANNELS 3 Zrotation Xrotation Yrotation
                  JOINT LeftHand
                  {
                    OFFSET 24.5451 1.51738e-005 0
                    CHANNELS 3 Zrotation Xrotation Yrotation
                    End Site
                    {
                      OFFSET 0 0 0
                    }
                  }
                }
              }
            }
            JOINT Neck
            {
              OFFSET 5.0226 -0.0266342 0
              CHANNELS 3 Zrotation Xrotation Yrotation
              JOINT Head
              {
                OFFSET 6.69364 2.86102e-005 0
                CHANNELS 3 Zrotation Xrotation Yrotation
                End Site
                {
                  OFFSET 0 0 0
                }
              }
            }
          }
        }
      }
    }
  }
}
MOTION
Frames:	10
Frame Time:	0.0416667
-246.766 87.4159 -206.384 92.9029 13.4418 92.9371 175.473 15.7199 98.1352 -70.0214 47.9845 15.031 96.0873 25.6686 -1.13617 20.4652 -3.93181 0.0723315 150.674 -18.3774 103.342 -81.1184 6.47043 24.8354 67.424 -8.60827 -3.58422 15.9041 2.23897 10.1525 -4.26302 9.43618 -90.935 7.95518 -8.91844 -1.35238 -3.68522 -8.9693 -0.955414 -26.4277 -8.09726 -3.98662 -6.41509 -8.09725 -3.98663 91.3629 -27.0495 -105.109 20.6119 15.6788 -61.5363 2.70984 66.7769 -9.25715 -15.7241 13.142 -87.1764 -88.2576 -36.1851 78.3465 -8.21277 5.79266 -25.6959 175.342 10.2788 -142.518 40.9875 -4.3246 -11.6573 24.0081 -7.44096 -11.4247 -0.501708 -3.18918 0.0511224 
-242.746 88.7555 -203.826 92.5788 12.6665 93.4668 174.968 8.76495 100.353 -60.6613 45.3754 14.9423 99.4918 26.1053 -3.82463 20.4827 -5.40511 2.89428 142.716 -8.04505 97.3391 -90.0696 1.09678 15.4596 71.6465 -8.96949 -4.57945 23.1472 -2.35838 17.1885 -4.73197 9.40271 -90.9687 8.01834 -9.86966 -1.35889 -3.615 -9.91981 -0.918903 -26.408 -9.00156 -4.28511 -6.3954 -9.00157 -4.28513 91.8572 -26.2719 -104.361 24.7385 10.7034 -63.4153 2.75027 66.8664 -9.29815 -12.5214 10.6633 -88.8886 -87.7308 -34.783 78.9336 -8.7685 6.06518 -24.9289 172.198 14.7919 -142.226 39.656 -4.75231 -13.3504 23.9799 -5.14301 -10.2612 -1.71909 -1.38937 -0.657013 
-239.057 90.4056 -201.229 90.7047 7.04071 95.9817 179.242 2.9036 103.886 -47.5396 41.1176 11.6939 98.3216 25.6104 -4.66036 24.5989 -3.24779 2.8143 142.267 1.78328 98.1101 -94.3929 -0.9078 8.319 77.0417 -11.4329 -6.73923 41.9046 -7.46342 15.1141 -4.47599 9.2144 -91.298 8.37286 -9.50474 -1.98258 -3.26386 -9.58271 -1.55862 -26.0214 -8.46692 -4.76539 -6.00875 -8.46694 -4.7654 92.8448 -25.8451 -102.404 29.2676 5.25735 -64.2514 -1.30034 64.1331 -4.92166 -9.36567 8.26051 -91.7558 -88.6359 -35.4026 77.472 -7.13039 6.89386 -25.5432 167.479 20.6339 -142.05 38.0903 -5.16243 -15.0928 23.0539 -2.91459 -8.44531 -1.62389 0.0565606 -0.441108 
-235.858 92.0955 -198.78 89.3087 -0.69449 97.9207 -175.169 -1.32806 106.969 -38.4091 39.2895 8.84331 89.1205 23.4724 0.734666 34.0433 2.2958 0.00437757 145.368 14.4829 99.4389 -94.6795 -1.31168 4.57131 81.7333 -15.188 -10.7827 36.3832 -5.55858 13.3503 -4.15807 9.07867 -91.5601 8.62192 -8.98719 -2.51032 -3.01936 -9.08889 -2.10935 -25.7362 -7.81584 -5.10826 -5.72359 -7.81586 -5.10827 93.0215 -24.3645 -102.541 33.1694 -0.0533659 -47.9833 23.1959 48.7646 -36.1977 -14.6412 12.7545 -89.6297 -88.169 -36.1107 78.4852 -5.84299 8.59669 -24.8671 163.034 25.7258 -140.192 35.1816 -5.12841 -16.5516 23.597 -0.159581 -5.39075 -4.00091 1.71122 -1.1207 
-232.29 93.5195 -196.085 90.3774 -9.66771 99.0995 -170.123 -6.06603 107.831 -33.975 37.0619 6.76359 78.4696 17.7893 4.43517 44.023 5.90091 2.76893 151.585 23.8798 100.513 -91.5215 -0.595433 2.58806 82.9969 -16.3365 -12.3289 21.7524 -0.618549 12.4709 -3.61386 9.12765 -91.5897 8.5273 -7.9137 -2.64624 -3.12141 -8.02243 -2.29342 -25.7855 -6.75204 -4.90983 -5.7729 -6.75205 -4.90983 93.1862 -24.22 -102.227 35.5496 -5.79335 -20.7268 28.5258 21.7459 -61.5939 -25.7751 19.351 -79.9343 -88.1399 -35.4441 78.3669 -7.19057 8.4026 -23.6721 160.983 28.4899 -141.172 34.4406 -4.88385 -15.7602 24.6326 1.89369 -4.38573 -7.05136 3.3502 0.433352 
-228.19 94.5664 -192.799 90.825 -19.5519 99.4195 -166.859 -10.9014 106.918 -28.2399 31.8506 4.27663 66.9397 9.41136 4.83531 56.3663 10.8032 5.54422 159.45 32.9373 101.202 -85.4468 4.49821 1.65474 82.9577 -14.4437 -8.35636 23.9968 -0.661918 9.92443 -3.01134 9.02168 -91.6027 8.74785 -6.71932 -2.72961 -2.90799 -6.83286 -2.43016 -25.5234 -5.58849 -4.62632 -5.51076 -5.58848 -4.62631 93.0396 -23.662 -102.748 37.8644 -10.0378 -0.128399 24.5964 9.76561 -74.0917 -27.9057 18.6419 -73.248 -88.5721 -36.2311 77.8023 -7.16713 8.55566 -22.1055 159.575 31.4252 -142.553 33.3724 -4.50904 -14.7343 24.0994 4.63478 -1.94673 -8.1774 5.10805 0.522342 
-223.122 95.3977 -188.758 89.5837 -30.3461 98.445 -166.764 -15.1995 103.315 -23.0593 24.7719 2.43086 54.9611 0.0201841 3.85151 58.4972 13.2694 -5.18879 167.952 40.4273 101.575 -76.118 7.07049 0.773706 81.5856 -12.6564 -4.77869 23.0822 -0.180093 9.3953 -2.32995 8.7442 -91.5561 9.3199 -5.34466 -2.69328 -2.34229 -5.45798 -2.45497 -24.9174 -4.28854 -4.17603 -4.90476 -4.28854 -4.17605 92.7428 -23.3742 -103.519 39.1571 -12.2653 18.3102 18.4353 3.97301 -85.525 -27.0072 14.3523 -60.762 -88.5675 -36.149 77.789 -7.70539 9.54031 -20.6785 157.577 34.5674 -143.088 31.559 -4.07606 -13.998 23.6181 7.03488 0.06323 -9.91582 6.69862 0.797351 
-217.556 95.9371 -184.109 85.4025 -39.2692 95.6865 -170.834 -15.8329 97.1146 -22.7341 16.7669 2.8919 49.6916 -5.16863 1.23541 25.0756 -0.202704 -4.29157 174.584 46.1274 101.83 -63.6687 5.6826 0.233005 79.8724 -12.0886 -3.32616 20.8645 0.846848 8.75153 -1.81351 8.26693 -91.6628 10.2782 -4.37294 -2.92451 -1.38826 -4.49736 -2.72908 -23.9339 -3.29256 -4.10321 -3.92129 -3.29254 -4.10322 92.6205 -22.2244 -104.235 38.6527 -12.9864 32.8545 13.3608 -1.91011 -94.9945 -23.1655 8.12769 -44.0004 -88.8362 -37.2691 77.6095 -7.69214 9.75056 -18.8414 156.09 37.4667 -143.872 31.5662 -3.85997 -12.7687 22.8013 9.62137 2.81222 -11.633 8.28813 0.663075 
-211.382 96.2906 -179.124 81.1473 -44.9957 92.1525 -174.159 -14.749 91.5525 -26.1306 12.1833 3.45624 51.0784 -5.82851 -0.0130068 12.5796 -7.67411 -0.282865 178.88 48.2391 101.371 -50.1751 -0.768295 -0.0268054 76.187 -10.8326 -3.79403 20.4131 1.29133 7.90418 -1.55482 7.91354 -91.7215 10.9878 -3.89236 -3.05416 -0.680471 -4.02294 -2.87985 -23.2141 -2.79532 -4.08208 -3.20146 -2.79531 -4.08208 92.304 -22.2323 -104.949 37.3848 -11.3059 36.2 10.0177 -1.74858 -98.4614 -18.7092 5.16966 -36.9154 -88.4879 -36.6814 78.067 -9.54127 8.53063 -18.035 157.497 38.9593 -147.489 32.6208 -3.65635 -11.0131 22.1013 11.7397 3.96559 -12.4788 9.92819 1.30824 
-205.193 96.1311 -173.697 79.2326 -47.7549 90.5754 -173.852 -14.7225 89.7851 -31.4486 14.9595 2.04761 54.9728 -3.48779 2.53841 18.9446 -4.31449 -0.575075 -179.26 46.8894 101.269 -37.787 -8.76099 0.271975 72.9257 -9.55806 -4.52633 23.0243 0.482841 7.21846 -1.52359 7.81516 -91.837 11.1792 -3.88596 -3.27674 -0.489677 -4.02634 -3.10254 -23.0178 -2.7225 -4.29223 -3.00513 -2.72249 -4.29222 91.9871 -22.6105 -105.51 36.2373 -8.76622 33.3962 6.34726 -1.1235 -97.1842 -16.1778 4.37559 -36.4966 -87.9952 -37.2517 79.0712 -9.86402 8.55919 -18.6622 156.396 40.3612 -146.891 30.1718 -3.58682 -12.4084 21.6279 13.1335 5.06007 -12.6536 10.9117 1.7473 
